<svg width="32" height="32" viewBox="0 0 32 32" fill="none" xmlns="http://www.w3.org/2000/svg">
<rect width="32" height="32" fill="#5A6AFF"/>
<path d="M6.484 24V23.78L6.88 23.626C7.17333 23.5087 7.37133 23.362 7.474 23.186C7.59133 23.01 7.65 22.7753 7.65 22.482V10.998C7.65 10.69 7.59133 10.448 7.474 10.272C7.37133 10.096 7.17333 9.95667 6.88 9.854L6.484 9.7V9.48H12.798C14.5873 9.48 15.878 9.81 16.67 10.47C17.462 11.1153 17.858 11.9367 17.858 12.934C17.858 13.682 17.5647 14.364 16.978 14.98C16.406 15.5813 15.416 16.0067 14.008 16.256C15.6213 16.432 16.802 16.8573 17.55 17.532C18.298 18.192 18.672 18.9987 18.672 19.952C18.672 20.4213 18.5693 20.898 18.364 21.382C18.1587 21.8513 17.8067 22.284 17.308 22.68C16.824 23.076 16.1567 23.3987 15.306 23.648C14.4553 23.8827 13.3773 24 12.072 24H6.484ZM10.906 16.234H11.852C12.8347 16.234 13.5387 16.0067 13.964 15.552C14.404 15.0973 14.624 14.3053 14.624 13.176C14.624 12.0027 14.426 11.1667 14.03 10.668C13.634 10.1693 12.9887 9.92 12.094 9.92H10.906V16.234ZM10.906 23.56H12.006C13.106 23.56 13.92 23.2667 14.448 22.68C14.9907 22.0933 15.262 21.1767 15.262 19.93C15.262 18.7567 15.0053 17.9207 14.492 17.422C13.9787 16.9233 13.1353 16.674 11.962 16.674H10.906V23.56ZM22.0402 24.33C21.5122 24.33 21.0649 24.1467 20.6982 23.78C20.3316 23.4133 20.1482 22.9733 20.1482 22.46C20.1482 21.9467 20.3316 21.4993 20.6982 21.118C21.0649 20.7367 21.5122 20.546 22.0402 20.546C22.5682 20.546 23.0156 20.7367 23.3822 21.118C23.7489 21.4993 23.9322 21.9467 23.9322 22.46C23.9322 22.9733 23.7489 23.4133 23.3822 23.78C23.0156 24.1467 22.5682 24.33 22.0402 24.33Z" fill="white"/>
</svg>
