<svg width="609" height="442" viewBox="0 0 609 442" fill="none" xmlns="http://www.w3.org/2000/svg">
<g clip-path="url(#clip0_34_14)">
<path d="M382.085 328.928V435.338H115.485C85.1097 435.338 60.3959 411.47 60.3959 382.133C60.3959 352.796 85.1097 328.928 115.485 328.928H382.085Z" fill="#F2F2F2"/>
<path d="M388.633 434.519C388.632 435.605 388.201 436.645 387.434 437.413C386.666 438.18 385.625 438.612 384.54 438.612H110.736C95.8655 438.612 81.6038 432.705 71.0886 422.189C60.5733 411.674 54.6659 397.412 54.6659 382.542C54.6659 367.671 60.5733 353.409 71.0886 342.894C81.6038 332.379 95.8655 326.471 110.736 326.471H384.54C385.625 326.471 386.666 326.903 387.434 327.67C388.202 328.438 388.633 329.479 388.633 330.564C388.633 331.65 388.202 332.691 387.434 333.458C386.666 334.226 385.625 334.657 384.54 334.657H110.736C98.0364 334.657 85.8567 339.702 76.8765 348.682C67.8964 357.662 62.8514 369.842 62.8514 382.542C62.8514 395.242 67.8964 407.421 76.8765 416.401C85.8567 425.382 98.0364 430.427 110.736 430.427H384.54C385.625 430.427 386.666 430.858 387.434 431.626C388.201 432.393 388.632 433.434 388.633 434.519Z" fill="#5A6AFF"/>
<path d="M382.086 353.485H95.5938C95.3767 353.485 95.1685 353.399 95.015 353.245C94.8615 353.092 94.7752 352.883 94.7752 352.666C94.7752 352.449 94.8615 352.241 95.015 352.087C95.1685 351.934 95.3767 351.848 95.5938 351.848H382.086C382.303 351.848 382.512 351.934 382.665 352.087C382.819 352.241 382.905 352.449 382.905 352.666C382.905 352.883 382.819 353.092 382.665 353.245C382.512 353.399 382.303 353.485 382.086 353.485Z" fill="#CCCCCC"/>
<path d="M382.086 373.13H95.5938C95.3767 373.13 95.1685 373.044 95.015 372.89C94.8615 372.737 94.7752 372.529 94.7752 372.312C94.7752 372.094 94.8615 371.886 95.015 371.733C95.1685 371.579 95.3767 371.493 95.5938 371.493H382.086C382.303 371.493 382.512 371.579 382.665 371.733C382.819 371.886 382.905 372.094 382.905 372.312C382.905 372.529 382.819 372.737 382.665 372.89C382.512 373.044 382.303 373.13 382.086 373.13Z" fill="#CCCCCC"/>
<path d="M382.086 392.775H95.5938C95.3767 392.775 95.1685 392.688 95.015 392.535C94.8615 392.381 94.7752 392.173 94.7752 391.956C94.7752 391.739 94.8615 391.531 95.015 391.377C95.1685 391.224 95.3767 391.138 95.5938 391.138H382.086C382.303 391.138 382.512 391.224 382.665 391.377C382.819 391.531 382.905 391.739 382.905 391.956C382.905 392.173 382.819 392.381 382.665 392.535C382.512 392.688 382.303 392.775 382.086 392.775Z" fill="#CCCCCC"/>
<path d="M382.086 412.419H95.5938C95.3767 412.419 95.1685 412.333 95.015 412.179C94.8615 412.026 94.7752 411.818 94.7752 411.601C94.7752 411.383 94.8615 411.175 95.015 411.022C95.1685 410.868 95.3767 410.782 95.5938 410.782H382.086C382.303 410.782 382.512 410.868 382.665 411.022C382.819 411.175 382.905 411.383 382.905 411.601C382.905 411.818 382.819 412.026 382.665 412.179C382.512 412.333 382.303 412.419 382.086 412.419Z" fill="#CCCCCC"/>
<path d="M588.127 348.959L521.363 431.819L313.768 264.548C290.115 245.49 285.847 211.398 304.253 188.553C322.66 165.709 356.879 162.629 380.532 181.687L588.127 348.959Z" fill="#F2F2F2"/>
<path d="M526.975 435.291C526.294 436.136 525.305 436.675 524.226 436.791C523.147 436.907 522.066 436.59 521.221 435.91L308.015 264.119C296.435 254.788 289.036 241.24 287.446 226.455C285.855 211.669 290.204 196.857 299.534 185.278C308.864 173.698 322.412 166.299 337.198 164.709C351.983 163.118 366.795 167.466 378.375 176.797L591.58 348.588C591.999 348.925 592.347 349.341 592.605 349.813C592.863 350.284 593.026 350.802 593.083 351.337C593.141 351.872 593.093 352.412 592.941 352.928C592.79 353.444 592.538 353.925 592.201 354.344C591.864 354.763 591.447 355.111 590.975 355.368C590.503 355.626 589.985 355.788 589.451 355.845C588.916 355.903 588.375 355.854 587.86 355.702C587.344 355.551 586.863 355.299 586.444 354.961L373.239 183.17C368.342 179.222 362.716 176.277 356.682 174.504C350.647 172.73 344.322 172.163 338.068 172.834C331.814 173.506 325.753 175.403 320.233 178.417C314.712 181.431 309.839 185.504 305.893 190.402C301.947 195.3 299.004 200.927 297.233 206.962C295.461 212.998 294.897 219.323 295.571 225.577C296.245 231.831 298.144 237.89 301.161 243.41C304.177 248.929 308.251 253.8 313.151 257.745L526.356 429.536C527.201 430.217 527.741 431.206 527.857 432.285C527.973 433.364 527.656 434.445 526.975 435.291Z" fill="#CCCCCC"/>
<path d="M572.721 368.079L349.635 188.329C349.552 188.262 349.482 188.178 349.431 188.084C349.379 187.99 349.347 187.886 349.335 187.779C349.324 187.672 349.333 187.564 349.364 187.461C349.394 187.358 349.444 187.262 349.512 187.178C349.579 187.094 349.662 187.025 349.757 186.973C349.851 186.922 349.955 186.889 350.061 186.878C350.168 186.866 350.276 186.876 350.38 186.906C350.483 186.936 350.579 186.987 350.663 187.054L573.748 366.805C573.832 366.872 573.901 366.955 573.953 367.05C574.005 367.144 574.037 367.248 574.049 367.355C574.06 367.462 574.051 367.57 574.02 367.673C573.99 367.776 573.94 367.873 573.872 367.956C573.805 368.04 573.721 368.11 573.627 368.161C573.533 368.213 573.429 368.245 573.322 368.257C573.215 368.268 573.107 368.258 573.004 368.228C572.9 368.197 572.804 368.147 572.721 368.079Z" fill="#CCCCCC"/>
<path d="M560.395 383.376L337.309 203.625C337.14 203.489 337.032 203.291 337.009 203.076C336.986 202.86 337.05 202.644 337.186 202.475C337.322 202.306 337.52 202.198 337.735 202.175C337.951 202.151 338.167 202.215 338.336 202.351L561.422 382.101C561.506 382.168 561.576 382.251 561.627 382.346C561.679 382.44 561.711 382.544 561.723 382.651C561.735 382.758 561.725 382.866 561.695 382.969C561.664 383.072 561.614 383.169 561.547 383.252C561.479 383.336 561.396 383.406 561.301 383.457C561.207 383.509 561.103 383.541 560.996 383.553C560.889 383.564 560.781 383.554 560.678 383.524C560.575 383.494 560.479 383.443 560.395 383.376Z" fill="#CCCCCC"/>
<path d="M548.068 398.673L324.982 218.922C324.813 218.786 324.705 218.588 324.682 218.372C324.659 218.157 324.722 217.94 324.858 217.771C324.995 217.602 325.192 217.494 325.408 217.471C325.624 217.448 325.84 217.511 326.009 217.647L549.095 397.398C549.179 397.465 549.249 397.549 549.3 397.643C549.352 397.737 549.384 397.841 549.396 397.948C549.407 398.055 549.397 398.163 549.367 398.266C549.337 398.369 549.287 398.465 549.219 398.549C549.152 398.632 549.068 398.702 548.974 398.754C548.88 398.805 548.776 398.838 548.669 398.849C548.562 398.861 548.454 398.851 548.351 398.821C548.248 398.79 548.152 398.74 548.068 398.673Z" fill="#CCCCCC"/>
<path d="M535.745 413.97L312.66 234.22C312.576 234.153 312.506 234.069 312.455 233.975C312.403 233.881 312.371 233.777 312.359 233.67C312.348 233.563 312.358 233.455 312.388 233.352C312.418 233.249 312.468 233.153 312.536 233.069C312.603 232.985 312.687 232.916 312.781 232.864C312.875 232.813 312.979 232.78 313.086 232.769C313.193 232.757 313.301 232.767 313.404 232.797C313.507 232.827 313.603 232.878 313.687 232.945L536.772 412.696C536.856 412.763 536.925 412.846 536.977 412.941C537.029 413.035 537.061 413.139 537.073 413.246C537.084 413.353 537.075 413.461 537.045 413.564C537.014 413.667 536.964 413.763 536.896 413.847C536.829 413.931 536.746 414.001 536.651 414.052C536.557 414.104 536.453 414.136 536.346 414.148C536.239 414.159 536.131 414.149 536.028 414.119C535.925 414.088 535.828 414.038 535.745 413.97Z" fill="#CCCCCC"/>
<path d="M602.181 439.43H-5.18145C-5.39854 439.43 -5.60675 439.344 -5.76025 439.191C-5.91376 439.037 -6 438.829 -6 438.612C-6 438.395 -5.91376 438.187 -5.76025 438.033C-5.60675 437.88 -5.39854 437.793 -5.18145 437.793H602.181C602.399 437.793 602.607 437.88 602.76 438.033C602.914 438.187 603 438.395 603 438.612C603 438.829 602.914 439.037 602.76 439.191C602.607 439.344 602.399 439.43 602.181 439.43Z" fill="#CCCCCC"/>
<path d="M270.736 317.743L261.379 317.742L256.928 281.647L270.74 281.649L270.736 317.743Z" fill="#FFB8B8"/>
<path d="M254.693 315.069H272.74V326.432H243.33C243.33 324.94 243.624 323.462 244.195 322.084C244.766 320.705 245.603 319.453 246.658 318.397C247.713 317.342 248.966 316.505 250.344 315.934C251.723 315.363 253.201 315.069 254.693 315.069Z" fill="#2F2E41"/>
<path d="M175.134 317.743L165.776 317.742L161.326 281.647L175.137 281.649L175.134 317.743Z" fill="#FFB8B8"/>
<path d="M159.091 315.069H177.139V326.432H147.728C147.728 324.94 148.022 323.462 148.593 322.084C149.164 320.705 150.001 319.453 151.057 318.397C152.112 317.342 153.364 316.505 154.743 315.934C156.122 315.363 157.599 315.069 159.091 315.069Z" fill="#2F2E41"/>
<path d="M206.389 50.0048V45.912C206.389 38.9108 209.17 32.1963 214.121 27.2457C219.071 22.2951 225.786 19.5139 232.787 19.5139C239.788 19.5139 246.503 22.2951 251.454 27.2457C256.404 32.1963 259.185 38.9108 259.185 45.912V50.0048C259.185 55.0522 257.18 59.8928 253.611 63.4619C250.042 67.0309 245.202 69.036 240.154 69.036H225.42C222.921 69.036 220.446 68.5438 218.137 67.5874C215.828 66.631 213.73 65.2291 211.963 63.4619C210.196 61.6947 208.794 59.5967 207.838 57.2877C206.881 54.9787 206.389 52.504 206.389 50.0048Z" fill="#2F2E41"/>
<path d="M232.787 70.4442C243.891 70.4442 252.892 61.4432 252.892 50.3399C252.892 39.2366 243.891 30.2355 232.787 30.2355C221.684 30.2355 212.683 39.2366 212.683 50.3399C212.683 61.4432 221.684 70.4442 232.787 70.4442Z" fill="#FFB8B8"/>
<path d="M123.433 119.436C124.249 118.665 125.224 118.083 126.289 117.73C127.354 117.377 128.484 117.262 129.598 117.393C130.713 117.524 131.785 117.898 132.739 118.488C133.694 119.078 134.507 119.87 135.122 120.809L152.357 117.549L156.892 127.539L132.489 131.801C130.844 132.73 128.916 133.023 127.069 132.625C125.222 132.226 123.585 131.165 122.469 129.641C121.353 128.116 120.835 126.236 121.012 124.355C121.19 122.474 122.051 120.724 123.433 119.436Z" fill="#FFB8B8"/>
<path d="M217.339 83.4471L189.078 102.064L141.39 117.292C140.758 117.495 140.216 117.911 139.856 118.469C139.496 119.027 139.34 119.692 139.416 120.352L140.456 129.312C140.502 129.709 140.631 130.092 140.833 130.436C141.036 130.78 141.308 131.077 141.633 131.31C141.957 131.543 142.327 131.705 142.718 131.786C143.108 131.868 143.512 131.867 143.902 131.783L188.783 122.163C190.955 121.7 193.009 120.796 194.817 119.506L226.567 96.917C227.718 96.0937 228.637 94.9864 229.233 93.7031C229.829 92.4197 230.084 91.0038 229.971 89.5931C229.855 88.1804 229.372 86.8224 228.572 85.6527C227.771 84.4829 226.68 83.5417 225.406 82.9215C224.131 82.3014 222.717 82.0238 221.303 82.1159C219.888 82.2081 218.522 82.6668 217.339 83.4471Z" fill="#CCCCCC"/>
<path d="M261.544 307.5C260.826 307.501 260.123 307.292 259.522 306.899C258.92 306.506 258.446 305.947 258.157 305.289L215.257 199.286C215.157 199.056 214.989 198.863 214.775 198.731C214.562 198.6 214.313 198.537 214.063 198.551C213.812 198.565 213.572 198.655 213.375 198.81C213.177 198.965 213.032 199.176 212.958 199.416L177.959 302.613C177.811 303.094 177.567 303.539 177.241 303.921C176.914 304.303 176.514 304.615 176.063 304.837C175.612 305.058 175.12 305.185 174.618 305.21C174.117 305.235 173.615 305.156 173.144 304.98L161.408 300.579C160.771 300.342 160.212 299.933 159.793 299.398C159.375 298.863 159.113 298.222 159.036 297.546C153.756 251.55 199.8 135.449 200.266 134.282L200.395 133.959L242.367 143.243L242.455 143.338C259.2 161.607 272.965 276.829 275.554 299.742C275.651 300.569 275.462 301.405 275.02 302.111C274.578 302.818 273.909 303.352 273.122 303.627L262.762 307.291C262.371 307.43 261.959 307.5 261.544 307.5Z" fill="#2F2E41"/>
<path d="M225.381 146.981C215.212 146.981 203.874 144.953 200.384 136.585L200.304 136.392L200.412 136.214C203.167 131.694 206.808 123.985 204.851 122.537C200.996 119.687 199.126 114.999 199.292 108.601C199.652 94.7139 209.115 82.3841 222.838 77.92C226.668 76.6942 230.567 75.6905 234.513 74.914C237.39 74.3335 240.36 74.3974 243.209 75.101C246.058 75.8046 248.717 77.1306 250.993 78.9836C253.297 80.8488 255.16 83.2012 256.447 85.8719C257.735 88.5427 258.415 91.4654 258.438 94.4301C258.582 109.271 256.297 129.941 244.595 144.133C244.046 144.791 243.283 145.235 242.439 145.386C236.809 146.404 231.102 146.938 225.381 146.981Z" fill="#CCCCCC"/>
<path d="M221.599 146.425C222.152 144.439 223.467 142.753 225.257 141.731C227.047 140.71 229.168 140.436 231.158 140.97C231.565 141.083 231.961 141.23 232.343 141.409L245.429 129.5L254.53 135.631L235.816 152.191C234.971 153.714 233.641 154.912 232.037 155.592C230.433 156.272 228.648 156.397 226.965 155.945C225.985 155.677 225.068 155.217 224.266 154.592C223.465 153.967 222.795 153.19 222.296 152.304C221.797 151.419 221.479 150.443 221.359 149.434C221.239 148.425 221.321 147.402 221.599 146.425Z" fill="#FFB8B8"/>
<path d="M243.356 146.575C242.507 146.576 241.684 146.282 241.027 145.744L235.867 141.527C235.437 141.176 235.092 140.731 234.857 140.228C234.623 139.724 234.506 139.174 234.515 138.618C234.523 138.063 234.657 137.516 234.907 137.02C235.157 136.524 235.515 136.09 235.956 135.752L257.6 119.152C257.856 118.955 258.025 118.664 258.068 118.343C258.112 118.022 258.027 117.697 257.832 117.438L244.473 99.7768C242.921 97.7317 242.142 95.2035 242.275 92.6396C242.408 90.0757 243.444 87.6416 245.199 85.768C247.048 83.7715 249.58 82.5428 252.292 82.3259C255.004 82.109 257.699 82.9196 259.841 84.5969L259.926 84.6861L273.876 104.66C275.384 105.843 276.599 107.359 277.425 109.088C278.251 110.818 278.665 112.715 278.637 114.632C278.608 116.549 278.137 118.433 277.26 120.137C276.383 121.841 275.124 123.32 273.581 124.457L245.549 145.853C244.914 146.322 244.146 146.575 243.356 146.575Z" fill="#CCCCCC"/>
<path d="M214.98 44.6843V34.7094L232.788 26.9332L249.768 34.7094V44.6843C249.768 45.1185 249.596 45.5349 249.289 45.8419C248.982 46.1489 248.565 46.3214 248.131 46.3214H216.617C216.183 46.3214 215.766 46.1489 215.459 45.8419C215.152 45.5349 214.98 45.1185 214.98 44.6843Z" fill="#2F2E41"/>
<path d="M231.969 20.8372C229.351 12.4565 234.85 2.8518 242.98 -0.465509C251.109 -3.78282 260.835 -1.46392 267.695 4.01678C274.554 9.49747 278.81 17.7065 281.065 26.1922C283.321 34.6779 283.749 43.5265 284.165 52.2969C294.153 54.1316 300.948 65.9783 297.487 75.5259C294.027 85.0735 281.221 89.8168 272.376 84.8265C263.532 79.8363 260.97 66.4218 267.353 58.5235C270.374 54.7863 272.061 50.1481 272.148 45.3437C272.234 40.5393 270.716 35.8432 267.832 31.9993C264.949 28.1554 260.865 25.3833 256.229 24.1222C251.592 22.8611 246.667 23.183 242.234 25.0369C237.311 27.0955 231.134 21.7469 231.969 20.8372Z" fill="#2F2E41"/>
<path d="M119.74 80.7411C107.782 80.6626 95.973 78.0763 85.0764 73.1492C84.4278 72.8601 83.8772 72.3886 83.4918 71.7921C83.1064 71.1956 82.9027 70.5 82.9057 69.7898V39.9799C82.9068 39.0033 83.2952 38.0671 83.9858 37.3765C84.6763 36.686 85.6126 36.2975 86.5892 36.2964H152.892C153.868 36.2975 154.804 36.686 155.495 37.3765C156.186 38.0671 156.574 39.0033 156.575 39.9799V69.7899C156.578 70.5 156.374 71.1957 155.989 71.7921C155.604 72.3886 155.053 72.8601 154.404 73.1492C143.508 78.0763 131.699 80.6626 119.74 80.7411Z" fill="#5A6AFF"/>
<path d="M119.732 56.5914C119.24 56.5919 118.753 56.494 118.3 56.3037L65.7233 34.1214C65.0453 33.8354 64.4685 33.3528 64.0672 32.7359C63.666 32.119 63.4588 31.3961 63.4723 30.6603C63.4858 29.9246 63.7194 29.2097 64.1429 28.6079C64.5665 28.0062 65.1605 27.5451 65.8486 27.2841L118.426 7.33794C119.273 7.0152 120.209 7.01719 121.055 7.34353L172.928 27.2896C173.612 27.5527 174.202 28.0139 174.623 28.6143C175.043 29.2146 175.275 29.9268 175.289 30.6596C175.302 31.3925 175.097 32.1127 174.699 32.7282C174.301 33.3437 173.728 33.8264 173.054 34.1146L121.18 56.2965C120.722 56.4916 120.229 56.5919 119.732 56.5914Z" fill="#5A6AFF"/>
<path d="M95.0451 77.177C97.7575 77.177 99.9564 74.9781 99.9564 72.2657C99.9564 69.5533 97.7575 67.3545 95.0451 67.3545C92.3326 67.3545 90.1338 69.5533 90.1338 72.2657C90.1338 74.9781 92.3326 77.177 95.0451 77.177Z" fill="#3F3D56"/>
<path opacity="0.2" d="M173.234 30.9659L121.359 53.1478C120.955 53.3207 120.52 53.4104 120.08 53.4114C119.64 53.4125 119.205 53.3249 118.8 53.154L66.2224 30.9724C65.5621 30.7004 65.0112 30.2162 64.6568 29.5963C64.425 29.9983 64.2813 30.445 64.2354 30.9068C64.1894 31.3686 64.2422 31.8349 64.3903 32.2747C64.5384 32.7145 64.7783 33.1178 65.0942 33.4577C65.41 33.7977 65.7946 34.0666 66.2224 34.2465L118.8 56.4281C119.205 56.5991 119.64 56.6867 120.08 56.6856C120.52 56.6845 120.955 56.5949 121.359 56.4219L173.234 34.24C173.659 34.0585 174.041 33.7888 174.355 33.4487C174.669 33.1085 174.907 32.7058 175.053 32.2669C175.2 31.828 175.252 31.3631 175.205 30.9027C175.159 30.4424 175.015 29.9971 174.784 29.5963C174.432 30.2112 173.887 30.6927 173.234 30.9659Z" fill="black"/>
<path d="M89.4575 70.2468C89.6746 70.2468 89.8828 70.1606 90.0363 70.0071C90.1898 69.8536 90.276 69.6454 90.276 69.4283V42.0387L117.273 32.2038C117.49 32.207 117.699 32.1239 117.855 31.9727C118.011 31.8214 118.1 31.6145 118.103 31.3974C118.107 31.1804 118.024 30.9709 117.872 30.8151C117.721 30.6593 117.514 30.5699 117.297 30.5667L90.3004 40.4016C90.0832 40.3966 89.8672 40.4358 89.6655 40.5167C89.4638 40.5976 89.2807 40.7187 89.1271 40.8724C88.972 41.0244 88.8488 41.2058 88.765 41.4062C88.6811 41.6065 88.6383 41.8215 88.6389 42.0387V69.4283C88.6389 69.6454 88.7252 69.8536 88.8787 70.0071C89.0322 70.1606 89.2404 70.2468 89.4575 70.2468Z" fill="#3F3D56"/>
</g>
<defs>
<clipPath id="clip0_34_14">
<rect width="609" height="441.431" fill="white"/>
</clipPath>
</defs>
</svg>
