<svg width="93" height="32" viewBox="0 0 93 32" fill="none" xmlns="http://www.w3.org/2000/svg">
<rect width="32" height="32" fill="#5A6AFF"/>
<path d="M3.286 21V20.87L3.52 20.779C3.69333 20.7097 3.81033 20.623 3.871 20.519C3.94033 20.415 3.975 20.2763 3.975 20.103V13.317C3.975 13.135 3.94033 12.992 3.871 12.888C3.81033 12.784 3.69333 12.7017 3.52 12.641L3.286 12.55V12.42H7.017C8.07433 12.42 8.837 12.615 9.305 13.005C9.773 13.3863 10.007 13.8717 10.007 14.461C10.007 14.903 9.83367 15.306 9.487 15.67C9.149 16.0253 8.564 16.2767 7.732 16.424C8.68533 16.528 9.383 16.7793 9.825 17.178C10.267 17.568 10.488 18.0447 10.488 18.608C10.488 18.8853 10.4273 19.167 10.306 19.453C10.1847 19.7303 9.97667 19.986 9.682 20.22C9.396 20.454 9.00167 20.6447 8.499 20.792C7.99633 20.9307 7.35933 21 6.588 21H3.286ZM5.899 16.411H6.458C7.03867 16.411 7.45467 16.2767 7.706 16.008C7.966 15.7393 8.096 15.2713 8.096 14.604C8.096 13.9107 7.979 13.4167 7.745 13.122C7.511 12.8273 7.12967 12.68 6.601 12.68H5.899V16.411ZM5.899 20.74H6.549C7.199 20.74 7.68 20.5667 7.992 20.22C8.31267 19.8733 8.473 19.3317 8.473 18.595C8.473 17.9017 8.32133 17.4077 8.018 17.113C7.71467 16.8183 7.21633 16.671 6.523 16.671H5.899V20.74ZM14.3947 21.195C13.736 21.195 13.164 21.0607 12.6787 20.792C12.1934 20.5147 11.8164 20.1247 11.5477 19.622C11.2877 19.1193 11.1577 18.53 11.1577 17.854C11.1577 17.178 11.2964 16.593 11.5737 16.099C11.8597 15.605 12.2454 15.2237 12.7307 14.955C13.2247 14.6863 13.7794 14.552 14.3947 14.552C15.01 14.552 15.5604 14.6863 16.0457 14.955C16.531 15.215 16.9124 15.592 17.1897 16.086C17.4757 16.58 17.6187 17.1693 17.6187 17.854C17.6187 18.5387 17.4844 19.1323 17.2157 19.635C16.9557 20.129 16.583 20.5147 16.0977 20.792C15.621 21.0607 15.0534 21.195 14.3947 21.195ZM14.3947 20.935C14.698 20.935 14.9407 20.8483 15.1227 20.675C15.3047 20.5017 15.4347 20.194 15.5127 19.752C15.5994 19.31 15.6427 18.686 15.6427 17.88C15.6427 17.0653 15.5994 16.437 15.5127 15.995C15.4347 15.553 15.3047 15.2453 15.1227 15.072C14.9407 14.8987 14.698 14.812 14.3947 14.812C14.0914 14.812 13.8444 14.8987 13.6537 15.072C13.4717 15.2453 13.3374 15.553 13.2507 15.995C13.1727 16.437 13.1337 17.0653 13.1337 17.88C13.1337 18.686 13.1727 19.31 13.2507 19.752C13.3374 20.194 13.4717 20.5017 13.6537 20.675C13.8444 20.8483 14.0914 20.935 14.3947 20.935ZM21.5549 21.195C20.8962 21.195 20.3242 21.0607 19.8389 20.792C19.3535 20.5147 18.9765 20.1247 18.7079 19.622C18.4479 19.1193 18.3179 18.53 18.3179 17.854C18.3179 17.178 18.4565 16.593 18.7339 16.099C19.0199 15.605 19.4055 15.2237 19.8909 14.955C20.3849 14.6863 20.9395 14.552 21.5549 14.552C22.1702 14.552 22.7205 14.6863 23.2059 14.955C23.6912 15.215 24.0725 15.592 24.3499 16.086C24.6359 16.58 24.7789 17.1693 24.7789 17.854C24.7789 18.5387 24.6445 19.1323 24.3759 19.635C24.1159 20.129 23.7432 20.5147 23.2579 20.792C22.7812 21.0607 22.2135 21.195 21.5549 21.195ZM21.5549 20.935C21.8582 20.935 22.1009 20.8483 22.2829 20.675C22.4649 20.5017 22.5949 20.194 22.6729 19.752C22.7595 19.31 22.8029 18.686 22.8029 17.88C22.8029 17.0653 22.7595 16.437 22.6729 15.995C22.5949 15.553 22.4649 15.2453 22.2829 15.072C22.1009 14.8987 21.8582 14.812 21.5549 14.812C21.2515 14.812 21.0045 14.8987 20.8139 15.072C20.6319 15.2453 20.4975 15.553 20.4109 15.995C20.3329 16.437 20.2939 17.0653 20.2939 17.88C20.2939 18.686 20.3329 19.31 20.4109 19.752C20.4975 20.194 20.6319 20.5017 20.8139 20.675C21.0045 20.8483 21.2515 20.935 21.5549 20.935ZM25.3251 21V20.87L25.5201 20.805C25.8147 20.7097 25.9621 20.4973 25.9621 20.168V13.213C25.9621 13.0397 25.9274 12.9097 25.8581 12.823C25.7887 12.7363 25.6674 12.667 25.4941 12.615L25.3251 12.576V12.446L27.7041 11.887L27.8601 12.004L27.8211 13.824V20.168C27.8211 20.5147 27.9641 20.7313 28.2501 20.818L28.4321 20.87V21H25.3251ZM30.1481 21L27.8341 17.75L30.2391 15.527C30.3517 15.423 30.4167 15.3147 30.4341 15.202C30.4601 15.0807 30.3864 14.994 30.2131 14.942L29.9921 14.877V14.747H31.9291V14.877L31.5391 14.981C31.3484 15.0417 31.1924 15.1153 31.0711 15.202C30.9584 15.28 30.8197 15.3927 30.6551 15.54L29.1991 16.905L31.5261 20.142C31.6647 20.3327 31.7947 20.48 31.9161 20.584C32.0374 20.688 32.1934 20.7747 32.3841 20.844L32.4361 20.87V21H30.1481Z" fill="white"/>
<path d="M34.7254 21.195C34.2227 21.195 33.798 21.052 33.4514 20.766C33.1134 20.48 32.9444 20.0683 32.9444 19.531C32.9444 19.1237 33.1524 18.751 33.5684 18.413C33.9844 18.0663 34.6387 17.8063 35.5314 17.633C35.67 17.607 35.826 17.581 35.9994 17.555C36.1727 17.5203 36.3547 17.4857 36.5454 17.451V16.424C36.5454 15.8347 36.4717 15.423 36.3244 15.189C36.1857 14.9463 35.9647 14.825 35.6614 14.825C35.4534 14.825 35.2887 14.8943 35.1674 15.033C35.046 15.163 34.968 15.3927 34.9334 15.722L34.9074 15.865C34.89 16.2377 34.799 16.5107 34.6344 16.684C34.4697 16.8573 34.266 16.944 34.0234 16.944C33.798 16.944 33.6117 16.8747 33.4644 16.736C33.317 16.5973 33.2434 16.411 33.2434 16.177C33.2434 15.8217 33.3647 15.5227 33.6074 15.28C33.8587 15.0373 34.188 14.8553 34.5954 14.734C35.0027 14.6127 35.4447 14.552 35.9214 14.552C36.6927 14.552 37.2864 14.7427 37.7024 15.124C38.127 15.4967 38.3394 16.1077 38.3394 16.957V19.83C38.3394 20.22 38.5214 20.415 38.8854 20.415H39.1714L39.2884 20.519C39.1237 20.727 38.9417 20.8873 38.7424 21C38.5517 21.1127 38.2787 21.169 37.9234 21.169C37.542 21.169 37.2387 21.0823 37.0134 20.909C36.7967 20.727 36.6537 20.4887 36.5844 20.194C36.3244 20.4713 36.0557 20.7097 35.7784 20.909C35.5097 21.0997 35.1587 21.195 34.7254 21.195ZM35.5184 20.402C35.6917 20.402 35.852 20.363 35.9994 20.285C36.1554 20.1983 36.3374 20.0683 36.5454 19.895V17.711C36.4587 17.7283 36.372 17.7457 36.2854 17.763C36.1987 17.7803 36.099 17.7977 35.9864 17.815C35.5877 17.919 35.267 18.0967 35.0244 18.348C34.7904 18.5907 34.6734 18.92 34.6734 19.336C34.6734 19.6913 34.7557 19.96 34.9204 20.142C35.085 20.3153 35.2844 20.402 35.5184 20.402ZM41.7789 21.169L39.5819 21V20.87L39.7119 20.844C40.0499 20.766 40.2189 20.5493 40.2189 20.194V13.239C40.2189 13.057 40.1886 12.9183 40.1279 12.823C40.0759 12.7277 39.9632 12.6627 39.7899 12.628L39.6079 12.576V12.446L41.9219 11.887L42.0779 12.004L42.0259 13.837V15.15C42.3119 14.9507 42.6239 14.8033 42.9619 14.708C43.2999 14.604 43.6422 14.552 43.9889 14.552C44.4829 14.552 44.9206 14.669 45.3019 14.903C45.6832 15.1283 45.9822 15.4837 46.1989 15.969C46.4242 16.4457 46.5369 17.061 46.5369 17.815C46.5369 18.569 46.4112 19.1973 46.1599 19.7C45.9172 20.194 45.5879 20.5667 45.1719 20.818C44.7646 21.0693 44.3139 21.195 43.8199 21.195C43.4992 21.195 43.1742 21.1517 42.8449 21.065C42.5242 20.9783 42.2382 20.857 41.9869 20.701L41.7789 21.169ZM43.1699 20.753C43.4472 20.753 43.6899 20.6663 43.8979 20.493C44.1059 20.3197 44.2706 20.025 44.3919 19.609C44.5132 19.1843 44.5739 18.6037 44.5739 17.867C44.5739 17.1303 44.5176 16.5627 44.4049 16.164C44.2922 15.7653 44.1319 15.488 43.9239 15.332C43.7246 15.176 43.4819 15.098 43.1959 15.098C42.7886 15.098 42.4116 15.2107 42.0649 15.436V20.428C42.2296 20.532 42.3986 20.6143 42.5719 20.675C42.7452 20.727 42.9446 20.753 43.1699 20.753ZM47.0978 21V20.87L47.2538 20.818C47.5658 20.714 47.7218 20.4973 47.7218 20.168V13.213C47.7218 13.0397 47.6872 12.9097 47.6178 12.823C47.5485 12.7277 47.4272 12.6583 47.2538 12.615L47.0848 12.576V12.446L49.4638 11.887L49.6198 12.004L49.5678 13.824V18.27C49.5678 18.5907 49.5678 18.9113 49.5678 19.232C49.5765 19.544 49.5808 19.856 49.5808 20.168C49.5808 20.3413 49.6155 20.4843 49.6848 20.597C49.7542 20.701 49.8712 20.779 50.0358 20.831L50.2048 20.87V21H47.0978ZM54.0416 14.552C54.6049 14.552 55.0859 14.669 55.4846 14.903C55.8832 15.1283 56.1866 15.4403 56.3946 15.839C56.6112 16.229 56.7196 16.6753 56.7196 17.178C56.7196 17.2733 56.7152 17.373 56.7066 17.477C56.6979 17.5723 56.6806 17.659 56.6546 17.737H52.7806C52.7892 18.673 52.9539 19.349 53.2746 19.765C53.6039 20.1723 54.0892 20.376 54.7306 20.376C55.1639 20.376 55.5149 20.3067 55.7836 20.168C56.0522 20.0293 56.3036 19.8257 56.5376 19.557L56.6676 19.674C56.3989 20.1507 56.0392 20.5233 55.5886 20.792C55.1466 21.0607 54.6136 21.195 53.9896 21.195C53.3742 21.195 52.8282 21.065 52.3516 20.805C51.8749 20.5363 51.5022 20.155 51.2336 19.661C50.9649 19.167 50.8306 18.5777 50.8306 17.893C50.8306 17.1823 50.9866 16.58 51.2986 16.086C51.6106 15.5833 52.0092 15.202 52.4946 14.942C52.9886 14.682 53.5042 14.552 54.0416 14.552ZM54.0026 14.812C53.7512 14.812 53.5346 14.89 53.3526 15.046C53.1792 15.1933 53.0406 15.462 52.9366 15.852C52.8412 16.2333 52.7892 16.775 52.7806 17.477H55.0036C55.0902 16.5323 55.0556 15.852 54.8996 15.436C54.7436 15.02 54.4446 14.812 54.0026 14.812ZM62.6685 21.195C62.1138 21.195 61.6805 21.0563 61.3685 20.779C61.0651 20.5017 60.9135 20.0597 60.9135 19.453V15.007H60.0165V14.877L60.3285 14.825C60.5971 14.7643 60.8268 14.6777 61.0175 14.565C61.2168 14.4523 61.4118 14.3007 61.6025 14.11L62.6685 12.927H62.7985L62.7595 14.747H64.2155V15.007H62.7465V19.687C62.7465 19.9903 62.8115 20.22 62.9415 20.376C63.0801 20.532 63.2535 20.61 63.4615 20.61C63.6435 20.61 63.8038 20.5667 63.9425 20.48C64.0811 20.3847 64.2198 20.259 64.3585 20.103L64.4885 20.233C64.3151 20.5277 64.0768 20.7617 63.7735 20.935C63.4701 21.1083 63.1018 21.195 62.6685 21.195ZM68.1207 14.552C68.684 14.552 69.165 14.669 69.5637 14.903C69.9623 15.1283 70.2657 15.4403 70.4737 15.839C70.6903 16.229 70.7987 16.6753 70.7987 17.178C70.7987 17.2733 70.7943 17.373 70.7857 17.477C70.777 17.5723 70.7597 17.659 70.7337 17.737H66.8597C66.8683 18.673 67.033 19.349 67.3537 19.765C67.683 20.1723 68.1683 20.376 68.8097 20.376C69.243 20.376 69.594 20.3067 69.8627 20.168C70.1313 20.0293 70.3827 19.8257 70.6167 19.557L70.7467 19.674C70.478 20.1507 70.1183 20.5233 69.6677 20.792C69.2257 21.0607 68.6927 21.195 68.0687 21.195C67.4533 21.195 66.9073 21.065 66.4307 20.805C65.954 20.5363 65.5813 20.155 65.3127 19.661C65.044 19.167 64.9097 18.5777 64.9097 17.893C64.9097 17.1823 65.0657 16.58 65.3777 16.086C65.6897 15.5833 66.0883 15.202 66.5737 14.942C67.0677 14.682 67.5833 14.552 68.1207 14.552ZM68.0817 14.812C67.8303 14.812 67.6137 14.89 67.4317 15.046C67.2583 15.1933 67.1197 15.462 67.0157 15.852C66.9203 16.2333 66.8683 16.775 66.8597 17.477H69.0827C69.1693 16.5323 69.1347 15.852 68.9787 15.436C68.8227 15.02 68.5237 14.812 68.0817 14.812ZM71.2794 21V20.87L71.6174 20.792C71.8167 20.7487 71.977 20.6837 72.0984 20.597C72.2284 20.5017 72.3497 20.3717 72.4624 20.207L73.8664 18.192L72.0984 15.384C72.0117 15.254 71.9337 15.1543 71.8644 15.085C71.795 15.0157 71.6867 14.9637 71.5394 14.929L71.3574 14.877V14.747H74.6594V14.877L74.4384 14.929C74.135 15.0243 74.0744 15.215 74.2564 15.501L75.3224 17.152L76.4794 15.553C76.5747 15.4057 76.618 15.2843 76.6094 15.189C76.6094 15.085 76.527 15.0113 76.3624 14.968L76.0374 14.877V14.747H77.9354V14.877L77.6234 14.955C77.4327 15.007 77.2854 15.0763 77.1814 15.163C77.0774 15.241 76.9647 15.3667 76.8434 15.54L75.4784 17.386L77.2594 20.155C77.476 20.493 77.7664 20.7097 78.1304 20.805L78.3384 20.87V21H74.7504V20.87L74.9714 20.818C75.1187 20.7833 75.2097 20.714 75.2444 20.61C75.2877 20.4973 75.266 20.3717 75.1794 20.233L74.0354 18.452L72.8004 20.246C72.6964 20.3847 72.6617 20.506 72.6964 20.61C72.7397 20.7053 72.8307 20.7703 72.9694 20.805L73.2294 20.87V21H71.2794ZM81.1529 21.195C80.5982 21.195 80.1649 21.0563 79.8529 20.779C79.5495 20.5017 79.3979 20.0597 79.3979 19.453V15.007H78.5009V14.877L78.8129 14.825C79.0815 14.7643 79.3112 14.6777 79.5019 14.565C79.7012 14.4523 79.8962 14.3007 80.0869 14.11L81.1529 12.927H81.2829L81.2439 14.747H82.6999V15.007H81.2309V19.687C81.2309 19.9903 81.2959 20.22 81.4259 20.376C81.5645 20.532 81.7379 20.61 81.9459 20.61C82.1279 20.61 82.2882 20.5667 82.4269 20.48C82.5655 20.3847 82.7042 20.259 82.8429 20.103L82.9729 20.233C82.7995 20.5277 82.5612 20.7617 82.2579 20.935C81.9545 21.1083 81.5862 21.195 81.1529 21.195ZM85.7053 21.195C85.2806 21.195 84.8993 21.143 84.5613 21.039C84.2233 20.9437 83.9113 20.8223 83.6253 20.675L83.6383 19.128H83.7683L84.2103 19.908C84.401 20.2547 84.609 20.5147 84.8343 20.688C85.0683 20.8527 85.363 20.935 85.7183 20.935C86.1343 20.935 86.468 20.844 86.7193 20.662C86.9793 20.4713 87.1093 20.22 87.1093 19.908C87.1093 19.622 87.0183 19.388 86.8363 19.206C86.6543 19.024 86.3163 18.8593 85.8223 18.712L85.2763 18.543C84.7476 18.387 84.3316 18.1443 84.0283 17.815C83.725 17.4857 83.5733 17.0827 83.5733 16.606C83.5733 16.034 83.7986 15.5487 84.2493 15.15C84.7 14.7513 85.3456 14.552 86.1863 14.552C86.5243 14.552 86.8406 14.591 87.1353 14.669C87.4386 14.7383 87.729 14.8467 88.0063 14.994L87.9283 16.398H87.7983L87.3433 15.592C87.1786 15.306 87.014 15.1067 86.8493 14.994C86.6933 14.8727 86.455 14.812 86.1343 14.812C85.8396 14.812 85.5623 14.8943 85.3023 15.059C85.0423 15.2237 84.9123 15.4577 84.9123 15.761C84.9123 16.0557 85.0206 16.2897 85.2373 16.463C85.4626 16.6363 85.792 16.7967 86.2253 16.944L86.8103 17.113C87.4343 17.3037 87.8806 17.568 88.1493 17.906C88.418 18.2353 88.5523 18.634 88.5523 19.102C88.5523 19.7347 88.301 20.2417 87.7983 20.623C87.3043 21.0043 86.6066 21.195 85.7053 21.195Z" fill="black"/>
<path d="M90.6307 21.195C90.3187 21.195 90.0543 21.0867 89.8377 20.87C89.621 20.6533 89.5127 20.3933 89.5127 20.09C89.5127 19.7867 89.621 19.5223 89.8377 19.297C90.0543 19.0717 90.3187 18.959 90.6307 18.959C90.9427 18.959 91.207 19.0717 91.4237 19.297C91.6403 19.5223 91.7487 19.7867 91.7487 20.09C91.7487 20.3933 91.6403 20.6533 91.4237 20.87C91.207 21.0867 90.9427 21.195 90.6307 21.195Z" fill="#0C24FF"/>
</svg>
