<svg width="200" height="141" viewBox="0 0 200 141" fill="none" xmlns="http://www.w3.org/2000/svg">
<g clip-path="url(#clip0_35_7)">
<path d="M181.1 140.166H138.694V138.929C138.694 137.855 139.143 136.825 139.942 136.066C140.741 135.306 141.824 134.88 142.954 134.88H176.84C177.97 134.88 179.054 135.306 179.853 136.066C180.652 136.825 181.1 137.855 181.1 138.929V140.166Z" fill="#E6E6E6"/>
<path d="M158.905 135.126L160.194 134.632C146.701 102.797 148.001 62.6353 159.407 28.1834C160.762 24.1917 160.86 19.9105 159.688 15.8667C158.517 11.8228 156.127 8.1927 152.813 5.42288C146.193 -0.192681 137.065 -1.56068 128.991 1.85238C121.022 5.22187 119.923 11.091 119.923 16.9316H121.314C121.314 10.6971 122.716 5.95217 129.556 3.05986C137.123 -0.138799 145.68 1.14418 151.887 6.40903C155 9.01049 157.244 12.42 158.345 16.2182C159.445 20.0163 159.353 24.0373 158.081 27.7866C146.543 62.6363 145.319 103.074 158.905 135.126Z" fill="#E6E6E6"/>
<path d="M120.966 36.4244C123.653 36.4244 125.832 34.3535 125.832 31.799C125.832 29.2445 123.653 27.1736 120.966 27.1736C118.278 27.1736 116.1 29.2445 116.1 31.799C116.1 34.3535 118.278 36.4244 120.966 36.4244Z" fill="#E6E6E6"/>
<path d="M113.472 39.8626V31.0986H114.906V39.8626C115.317 40.0207 115.658 40.3099 115.869 40.6805C116.081 41.0511 116.15 41.4802 116.065 41.8941C115.981 42.308 115.747 42.681 115.405 42.9491C115.062 43.2173 114.633 43.364 114.189 43.364C113.745 43.364 113.315 43.2173 112.973 42.9491C112.631 42.681 112.397 42.308 112.312 41.8941C112.228 41.4802 112.297 41.0511 112.509 40.6805C112.72 40.3099 113.061 40.0207 113.472 39.8626Z" fill="#E6E6E6"/>
<path d="M106.54 24.3651C106.542 22.3505 107.385 20.419 108.884 18.9945C110.383 17.5699 112.415 16.7686 114.535 16.7663H127.744C129.864 16.7663 131.897 17.5669 133.397 18.9919C134.896 20.417 135.738 22.3498 135.738 24.3651C135.738 26.3805 134.896 28.3132 133.397 29.7383C131.897 31.1634 129.864 31.9639 127.744 31.9639H114.535C112.415 31.9617 110.383 31.1603 108.884 29.7358C107.385 28.3112 106.542 26.3798 106.54 24.3651Z" fill="#5A6AFF"/>
<path d="M87.9302 71.4221C89.2564 55.2951 96.0371 47.6114 91.6953 42.7928C87.5364 38.1772 75.8214 39.1307 68.2979 43.5597C48.0051 55.5057 40.5706 103.118 66.6843 126.38C91.4989 148.485 138.527 141.405 148.979 123.313C151.417 119.091 153.355 111.69 149.786 107.209C140.925 96.0814 108.708 116.236 94.3847 103.63C85.896 96.1593 87.2024 80.2725 87.9302 71.4221Z" fill="#3F3D56"/>
<path d="M103.442 63.4104C102.949 63.6259 102.565 64.0157 102.369 64.4969C102.174 64.978 102.184 65.5126 102.398 65.9867C102.442 66.0825 102.496 66.1745 102.557 66.2619L98.201 71.7896L100.374 74.8771L105.48 66.6917C105.841 66.4236 106.1 66.0493 106.214 65.627C106.328 65.2048 106.292 64.7585 106.112 64.3577C106.007 64.1306 105.855 63.9254 105.667 63.7538C105.478 63.5822 105.256 63.4476 105.013 63.3577C104.77 63.2677 104.51 63.2241 104.249 63.2295C103.988 63.2349 103.731 63.289 103.492 63.3889C103.475 63.3959 103.459 63.4031 103.442 63.4104Z" fill="#FFB6B6"/>
<path d="M103.438 72.941C103.723 73.1813 102.933 73.4778 102.096 73.01C101.857 72.8746 101.755 72.8183 101.728 72.8541C101.661 72.9436 102.053 73.6031 101.948 75.0678C101.884 75.942 100.356 77.5856 98.6216 79.1884C96.2765 81.356 93.5495 83.447 93.5495 83.447L92.5921 82.7185L82.5527 75.0678L80.8584 72.8388C81.0136 71.9586 81.2466 71.0923 81.555 70.2494C81.9798 69.0825 82.4847 67.9434 83.0664 66.8394C83.3784 66.2387 83.6984 65.6661 84.005 65.1395L89.3837 70.7734L93.8911 75.4921C93.8911 75.4921 95.2035 73.483 96.22 72.9359C96.3497 72.8572 96.4972 72.809 96.6504 72.7953C97.6777 72.7493 97.7395 72.2176 96.5482 71.0597C95.3568 69.9017 96.8601 70.983 97.9197 70.6711C98.9793 70.3593 97.9197 70.6711 98.143 69.8915C98.3662 69.1119 101.338 67.5475 101.338 67.5475L101.462 67.6523L103.707 69.5362L104.35 70.0756C104.35 70.0756 103.648 71.9058 103.454 72.2918C103.261 72.6777 103.156 72.6982 103.438 72.941Z" fill="#5A6AFF"/>
<path d="M162.635 108.45L162.745 105.63L151.355 103.887L151.193 108.048L162.635 108.45Z" fill="#FFB6B6"/>
<path d="M160.567 109.299L160.459 104.784L162.49 104.856L165.768 100.682C165.929 100.476 166.156 100.324 166.415 100.25C166.674 100.175 166.952 100.181 167.207 100.266C167.462 100.352 167.682 100.512 167.834 100.725C167.986 100.938 168.063 101.191 168.053 101.448L167.845 106.811L165.8 107.665L167.795 108.096L167.716 110.118L160.567 109.299Z" fill="#2F2E41"/>
<path d="M98.5321 109.548L134.608 110.417C134.608 110.417 150.187 111.273 153.842 109.012L157.697 108.55L157.906 103.169C157.906 103.169 155.549 103.185 154.193 102.585C152.838 101.985 153.78 101.251 152.488 101.973C151.196 102.695 151.332 102.782 150.333 102.45C149.335 102.118 103.525 95.4813 103.525 95.4813L98.5321 109.548Z" fill="#2F2E41"/>
<path d="M146.071 107.212L148.169 105.216L141.066 96.575L137.97 99.5214L146.071 107.212Z" fill="#FFB6B6"/>
<path d="M143.948 105.477L147.1 102.097L148.537 103.462L153.926 102.522C154.193 102.475 154.467 102.511 154.711 102.623C154.954 102.736 155.153 102.919 155.279 103.147C155.405 103.375 155.451 103.635 155.411 103.889C155.37 104.143 155.245 104.379 155.054 104.561L151.064 108.358L148.954 107.662L150.107 109.267L148.603 110.699L143.948 105.477Z" fill="#2F2E41"/>
<path d="M84.3002 90.7689L84.6589 98.6928C85.0811 108.021 95.8894 113.667 104.27 108.796C104.425 108.707 104.58 108.614 104.735 108.517C104.735 108.517 107.913 107.706 107.816 106.422C107.72 105.138 108.496 104.513 109.183 104.863C109.87 105.213 118.864 93.0815 118.864 93.0815C118.864 93.0815 137.55 101.941 141.672 104.026C141.672 104.026 145.548 98.2666 145.267 98.3269C144.986 98.3873 122.15 83.1959 122.15 83.1959C122.15 83.1959 118.43 79.6173 113.815 81.9801C113.719 82.3272 113.801 82.3393 113.801 82.3393L98.5563 94.1458L96.4023 90.2576L84.3002 90.7689Z" fill="#2F2E41"/>
<path d="M98.6738 80.8621C98.6449 81.2281 98.5901 81.5919 98.5098 81.951C98.4 82.4708 98.2229 82.9756 97.9827 83.454C97.9827 83.454 97.9827 83.9883 96.9069 85.7776C95.8312 87.5669 97.1759 86.8001 97.9827 88.1293C98.7895 89.4559 97.9827 88.845 97.0871 89.6988C96.8293 89.9472 96.6462 90.2568 96.5568 90.5953C96.4674 90.9338 96.475 91.2888 96.5788 91.6236C96.5788 91.6236 85.0254 91.6312 82.8739 90.8644C80.7224 90.0975 80.233 85.7776 82.1612 85.3507C84.0868 84.9238 81.5777 84.4995 80.4454 83.5154C79.3132 82.5313 81.5777 80.9209 81.5777 80.9209C81.5777 80.9209 80.6444 79.3897 80.7224 74.2493C80.7334 73.7765 80.7793 73.305 80.8596 72.8383C81.0147 71.958 81.2477 71.0918 81.5561 70.2489C81.9809 69.082 82.4858 67.9429 83.0675 66.8389C83.3795 66.2382 83.6995 65.6656 84.0061 65.1391C84.0545 65.0573 84.1002 64.978 84.1487 64.8988C84.7323 63.9172 85.2647 63.1146 85.617 62.6008C85.8887 62.202 86.0527 61.9771 86.0527 61.9771L88.0106 58.741L94.5457 61.6524L94.1745 66.4146L95.3014 70.006L95.8204 71.6599L96.2211 72.9354L96.8397 74.9113C96.8397 74.9113 96.6702 74.919 96.8719 75.1823C97.8009 76.3561 98.403 77.7338 98.6227 79.1878C98.7002 79.7427 98.7173 80.3038 98.6738 80.8621Z" fill="#5A6AFF"/>
<path d="M117.545 81.3756L117.422 81.3379L101.781 76.5505L107.545 58.5775C107.659 58.2196 107.858 57.8911 108.126 57.6169C108.394 57.3426 108.723 57.1296 109.09 56.9941C109.457 56.8586 109.852 56.804 110.244 56.8344C110.636 56.8649 111.016 56.9796 111.355 57.1699L121.351 62.783C122.142 63.2269 122.744 63.9208 123.052 64.7437C123.359 65.5666 123.353 66.466 123.033 67.2848L117.545 81.3756Z" fill="#2F2E41"/>
<path d="M117.609 82.5177L101.842 77.6917L107.606 59.7189C107.72 59.361 107.919 59.0325 108.187 58.7583C108.455 58.484 108.784 58.2711 109.151 58.1355C109.518 58 109.913 57.9454 110.305 57.9759C110.697 58.0063 111.077 58.121 111.416 58.3113L121.889 63.2812C123.463 64.1644 123.426 66.4506 122.695 68.3264L117.609 82.5177Z" fill="#5A6AFF"/>
<path d="M116.031 83.819C115.668 84.0137 115.266 84.1345 114.851 84.1737C114.436 84.2129 114.018 84.1697 113.621 84.0468L103.543 80.962C102.77 80.7219 102.126 80.2039 101.749 79.5187C101.372 78.8335 101.292 78.0354 101.526 77.2949L106.579 61.5394C106.68 61.2246 106.846 60.9322 107.067 60.6792C107.289 60.4263 107.561 60.2179 107.868 60.0663C108.176 59.9147 108.512 59.8229 108.857 59.7964C109.202 59.7698 109.549 59.8091 109.878 59.9118L120.322 63.1712C120.82 63.3265 121.28 63.5749 121.674 63.902C122.069 64.229 122.391 64.6279 122.621 65.0752C122.851 65.5225 122.985 66.009 123.013 66.5061C123.042 67.0032 122.966 67.5007 122.789 67.9693L117.387 82.2848C117.144 82.9348 116.663 83.4796 116.031 83.819Z" fill="#3F3D56"/>
<path d="M94.176 58.7963C98.1626 58.7963 101.394 55.7245 101.394 51.9352C101.394 48.146 98.1626 45.0742 94.176 45.0742C90.1893 45.0742 86.9576 48.146 86.9576 51.9352C86.9576 55.7245 90.1893 58.7963 94.176 58.7963Z" fill="#FFB6B6"/>
<path d="M69.7663 58.8998C70.4287 60.1203 71.5148 61.0854 72.8405 61.6314C73.3695 61.8605 73.9258 62.0278 74.4972 62.1298C74.6587 61.521 74.9172 60.9393 75.2638 60.4049C75.1484 61.0072 75.1484 61.6245 75.2638 62.2269C76.1343 62.2946 77.0101 62.1913 77.8368 61.9233C78.6486 61.6609 79.3849 61.2222 79.9873 60.6422C80.5897 60.0621 81.0416 59.3566 81.3072 58.5816C81.8822 56.763 81.2628 54.8205 81.214 52.9222C81.1638 51.0237 82.1122 48.753 84.0951 48.5181C85.6051 48.339 85.4184 48.4781 86.5034 49.492C84.9857 51.0945 88.6858 58.1922 90.6712 57.8785C91.7937 57.7012 92.6197 56.8542 92.8417 56.8835C93.9786 59.5298 90.5588 63.2828 93.2711 64.5148L93.0699 64.2617C91.6502 62.0325 95.851 58.2674 94.4313 56.0382C94.0355 55.4146 93.624 54.6835 93.8689 53.9936C94.1013 53.3377 95.2783 53.1301 95.5266 53.7271C95.123 52.3588 96.2499 50.7528 97.7467 50.6131C99.0764 50.4884 98.9996 50.8487 100.267 51.1774C100.429 50.6582 100.663 50.1617 100.962 49.7007C100.861 50.2267 100.848 50.7646 100.925 51.2942C101.382 51.3461 101.845 51.253 102.241 51.0295C103.411 50.3624 103.446 48.6404 102.642 47.5924C101.836 46.5441 100.487 46.0266 99.1845 45.6349C99.1725 43.0177 91.7633 41.7648 90.4006 44.1981C90.2604 42.2279 87.8843 40.9007 85.8374 41.2354C83.7905 41.57 82.1756 43.1301 81.1911 44.8689C80.2068 46.6063 79.7182 48.5518 78.9975 50.4024C78.2769 52.2531 77.2469 54.0984 75.5213 55.1965C73.796 56.2931 71.232 56.3927 69.7914 54.9713C69.4628 55.5782 69.2894 56.2502 69.285 56.9327C69.2806 57.6152 69.4455 58.2892 69.7663 58.8998Z" fill="#2F2E41"/>
<path d="M77.1727 90.2748C77.322 90.1613 77.4841 90.0637 77.6559 89.9839C80.4188 88.6769 89.0109 85.2843 95.7292 85.4235C108.656 85.6913 125.107 99.2511 121.278 108.357C118.365 115.286 103.881 119.228 93.3088 116.075C78.4976 111.658 72.6514 93.7012 77.1727 90.2748Z" fill="#3F3D56"/>
<path d="M23.5091 140.192C19.2852 139.434 15.5463 121.347 23.8567 112.439C26.704 109.387 30.2555 108.059 34.9798 106.823C62.1711 99.7075 82.9105 106.489 85.6975 108.144C88.4783 109.796 93.3533 134.686 87.1194 138.209C83.6119 140.192 76.66 141.183 73.2155 138.87C68.1472 135.467 76.6544 126.64 72.8679 120.699C68.5711 113.957 45.9446 111.686 34.6007 118.386C22.498 125.535 47.4618 144.487 23.5091 140.192Z" fill="#F2F2F2"/>
<path d="M51.7492 109.439H35.6124C31.6289 105.81 28.7807 102.313 31.061 99.4101C31.061 98.5757 31.4097 97.7754 32.0305 97.1854C32.6513 96.5954 33.4932 96.2639 34.3711 96.2639H52.9905C53.8684 96.2639 54.7104 96.5954 55.3311 97.1854C55.9519 97.7754 56.3007 98.5757 56.3007 99.4101C57.1689 102.718 55.6178 106.061 51.7492 109.439Z" fill="#CCCCCC"/>
<path d="M48.8513 92.304C48.6982 92.3107 48.5466 92.2725 48.4171 92.1946C48.2876 92.1166 48.1865 92.0028 48.1273 91.8684C48.0682 91.734 48.054 91.5855 48.0866 91.4432C48.1192 91.3008 48.197 91.1714 48.3095 91.0726L48.3608 90.879C48.354 90.8635 48.3472 90.848 48.3404 90.8325C48.1862 90.4863 47.9277 90.191 47.5975 89.9839C47.2673 89.7768 46.88 89.667 46.4844 89.6684C46.0888 89.6698 45.7024 89.7823 45.3738 89.9917C45.0452 90.2012 44.7891 90.4982 44.6375 90.8456C44.0319 92.232 43.2609 93.6208 43.071 95.0867C42.9874 95.7346 43.0227 96.3914 43.1753 97.0279C41.7528 94.0787 41.0142 90.8732 41.0094 87.6289C41.0091 86.8147 41.0567 86.0012 41.152 85.1921C41.2307 84.5288 41.3399 83.8703 41.4796 83.2164C42.242 79.6688 43.8789 76.3436 46.2559 73.514C47.4064 72.9174 48.3367 71.9999 48.9217 70.8852C49.1336 70.4845 49.2834 70.0567 49.3663 69.6153C49.2366 69.6314 48.877 67.7528 48.9749 67.6376C48.794 67.3767 48.4703 67.247 48.2728 66.9925C47.2904 65.7266 45.937 65.9476 45.2304 67.6679C43.7211 68.392 43.7065 69.5928 44.6326 70.7477C45.2218 71.4824 45.3028 72.4766 45.8198 73.2633C45.7666 73.328 45.7113 73.3907 45.6581 73.4554C44.6858 74.6437 43.8384 75.9197 43.128 77.2652C43.3007 75.7579 43.0945 74.2332 42.5264 72.8164C41.9505 71.496 40.8712 70.384 39.9207 69.2425C38.779 67.8714 36.4379 68.4698 36.2367 70.2078C36.2348 70.2247 36.2329 70.2415 36.231 70.2583C36.3722 70.334 36.5104 70.4144 36.6456 70.4994C36.8155 70.6072 36.9471 70.7614 37.0232 70.9415C37.0994 71.1217 37.1165 71.3196 37.0723 71.5092C37.0281 71.6987 36.9247 71.8712 36.7756 72.004C36.6265 72.1367 36.4387 72.2236 36.2368 72.2532L36.2161 72.2562C36.2664 72.7398 36.3553 73.2191 36.4821 73.69C35.2627 78.172 37.8952 79.8045 41.6541 79.8778C41.7371 79.9183 41.8179 79.9587 41.9009 79.9971C41.1871 81.9197 40.7395 83.9222 40.5691 85.9545C40.4726 87.1535 40.4783 88.3579 40.5861 89.556L40.5797 89.5135C40.3073 88.1813 39.5596 86.9791 38.4628 86.1102C36.8337 84.8382 34.5322 84.3698 32.7747 83.3474C32.5879 83.2335 32.3707 83.1726 32.1488 83.1721C31.9268 83.1716 31.7093 83.2314 31.522 83.3445C31.3346 83.4577 31.1852 83.6193 31.0913 83.8105C30.9975 84.0017 30.9631 84.2144 30.9923 84.4235C30.9946 84.4384 30.997 84.4533 30.9995 84.4682C31.2614 84.5696 31.5165 84.6864 31.7632 84.818C31.9044 84.8937 32.0426 84.9741 32.1778 85.0591C32.3477 85.1669 32.4793 85.3211 32.5554 85.5013C32.6316 85.6814 32.6487 85.8793 32.6045 86.0689C32.5603 86.2585 32.4569 86.4309 32.3078 86.5637C32.1587 86.6965 31.9709 86.7833 31.769 86.8129L31.7483 86.8159C31.7334 86.8179 31.7207 86.82 31.7058 86.822C32.1534 87.8379 32.7817 88.773 33.5631 89.5863C34.3255 93.499 37.6002 93.8702 41.103 92.7308H41.1052C41.4895 94.3182 42.0464 95.8634 42.7668 97.3414H48.7026C48.7239 97.2787 48.743 97.214 48.7621 97.1513C48.2127 97.1841 47.6611 97.1529 47.1197 97.0583C47.5601 96.5446 48.0005 96.027 48.4409 95.5133C48.4507 95.5037 48.4599 95.4936 48.4685 95.483C48.6919 95.2201 48.9175 94.9592 49.1408 94.6964L49.141 94.696C49.1529 93.8902 49.0554 93.0862 48.8513 92.304Z" fill="#CCCCCC"/>
<path d="M69.0974 108.617C69.1958 108.89 69.3826 109.125 69.6308 109.291C69.879 109.456 70.176 109.542 70.479 109.537L76.3989 109.392C76.7041 109.387 76.9992 109.287 77.2401 109.109C77.481 108.931 77.6548 108.683 77.7353 108.403L78.5731 99.8888C78.8703 100.017 79.1938 100.08 79.5201 100.074C80.0925 100.06 80.6357 99.8309 81.0303 99.4365C81.4249 99.0421 81.6385 98.5149 81.6241 97.9709C81.6097 97.4268 81.3686 96.9105 80.9537 96.5354C80.5388 96.1604 79.9841 95.9574 79.4117 95.971C79.2813 95.9706 79.1513 95.9835 79.0237 96.0094C78.8851 95.8668 78.7165 95.7533 78.5289 95.6764C78.3413 95.5995 78.1389 95.5607 77.9346 95.5627L68.8285 95.7862C68.753 95.7888 68.6778 95.7977 68.6039 95.8127C68.4042 95.8481 68.2148 95.9237 68.0484 96.0345C67.8821 96.1453 67.7426 96.2887 67.6394 96.455C67.5363 96.6213 67.4718 96.8067 67.4503 96.9987C67.4288 97.1907 67.4509 97.3848 67.5149 97.568L69.0974 108.617ZM78.7449 99.3107L79.341 97.2817C79.4088 97.0473 79.4103 96.8001 79.3455 96.565C79.3744 96.5649 79.4 96.5519 79.4289 96.5518C79.8376 96.5439 80.2329 96.6903 80.5282 96.9589C80.8235 97.2275 80.9947 97.5965 81.0042 97.9849C81.0138 98.3733 80.861 98.7495 80.5792 99.031C80.2975 99.3124 79.9098 99.4762 79.5012 99.4865C79.2369 99.4943 78.9755 99.4336 78.7449 99.3107Z" fill="#CCCCCC"/>
<path d="M68.6043 95.8123C68.7983 96.8667 70.9794 97.6079 73.6021 97.479C76.0139 97.3734 77.9858 96.5685 78.3471 95.6146C78.2134 95.577 78.0744 95.5594 77.935 95.5623L68.8289 95.7858C68.7534 95.7885 68.6782 95.7974 68.6043 95.8123Z" fill="white"/>
<path d="M0.317035 140.591L199.683 140.669C199.767 140.669 199.848 140.637 199.907 140.581C199.967 140.524 200 140.448 200 140.368C200 140.288 199.967 140.211 199.907 140.155C199.848 140.098 199.767 140.066 199.683 140.066L0.317035 139.989C0.232951 139.989 0.152313 140.02 0.0928572 140.077C0.0334013 140.133 0 140.21 0 140.29C0 140.37 0.0334013 140.447 0.0928572 140.503C0.152313 140.56 0.232951 140.591 0.317035 140.591Z" fill="#CACACA"/>
<path d="M112.136 73.2444C111.594 73.2632 111.081 73.4824 110.706 73.8552C110.331 74.2281 110.124 74.7252 110.129 75.2409C110.132 75.3456 110.144 75.45 110.165 75.553L103.908 79.064L104.665 82.7085L112.689 77.018C113.132 76.9027 113.521 76.6515 113.798 76.3035C114.074 75.9555 114.221 75.5303 114.217 75.0944C114.212 74.8463 114.155 74.6017 114.05 74.3744C113.946 74.1471 113.795 73.9416 113.607 73.7696C113.419 73.5977 113.197 73.4627 112.954 73.3722C112.711 73.2818 112.451 73.2378 112.19 73.2427C112.172 73.243 112.154 73.2436 112.136 73.2444Z" fill="#FFB6B6"/>
<path d="M107.009 81.6144C106.842 81.4013 106.77 81.3121 106.732 81.3366C106.634 81.3928 106.728 82.1457 106.039 83.4581C105.069 85.3018 94.8976 88.1255 94.8976 88.1255L93.6453 85.9463L88.1368 76.3698L86.2382 68.694C86.1718 68.4263 86.1395 68.1521 86.1421 67.8771C87.835 66.7448 89.6327 65.7613 91.5131 64.9386C92.2644 65.3437 92.8373 65.9924 93.1268 66.766L96.9186 76.8712L98.4316 80.9059C98.4316 80.9059 101.101 79.0918 102.069 79.4248C103.035 79.7599 103.31 79.2901 102.678 77.7861C102.046 76.2822 102.995 77.8303 104.098 77.9287C105.204 78.0285 104.098 77.9287 104.621 77.2905C105.143 76.6523 108.52 76.2932 108.52 76.2932L108.592 76.4357L109.901 78.9944L110.275 79.7295C110.275 79.7295 108.888 81.1603 108.553 81.4455C108.217 81.7327 108.113 81.7128 108.278 82.0401C108.44 82.3658 107.591 82.351 107.009 81.6144Z" fill="#5A6AFF"/>
</g>
<defs>
<clipPath id="clip0_35_7">
<rect width="200" height="140.817" fill="white"/>
</clipPath>
</defs>
</svg>
